<svg xmlns="http://www.w3.org/2000/svg" width="429" height="454" viewBox="0 0 429 454" version="1.1"><path d="M 193 52.033 C 179.210 53.327, 163.774 61.159, 152 72.836 L 143.500 81.265 136.500 82.077 C 102.030 86.075, 68 121.409, 68 153.204 L 68 159.619 62.524 164.346 C 53.024 172.547, 44.310 186.616, 38.889 202.500 C 36.788 208.657, 36.500 211.306, 36.500 224.500 C 36.500 237.547, 36.804 240.412, 38.833 246.500 C 43.418 260.257, 52.658 272.533, 62.691 278.195 L 68 281.191 68 289.669 C 68 299.774, 70.715 308.879, 77.232 320.632 C 82.204 329.599, 94.509 343.122, 103.598 349.607 C 114.853 357.638, 129.018 363, 138.982 363 C 142.374 363, 143.335 363.572, 146.566 367.515 C 151.247 373.227, 160.549 380.244, 169.251 384.626 C 177.844 388.954, 192.661 393.226, 197.652 392.816 L 201.500 392.500 201.500 310.750 L 201.500 229 208.867 229 C 216.128 229, 216.289 229.057, 220.053 232.935 C 222.187 235.134, 225.524 237.327, 227.616 237.904 C 235.876 240.185, 245.724 234.451, 247.988 226.045 C 250.670 216.086, 242.778 205, 233.008 205 C 228.453 205, 222.841 207.642, 219.912 211.166 C 217.522 214.041, 216.739 214.317, 209.709 214.768 L 202.095 215.257 202.449 136.341 C 202.644 92.937, 202.576 56.234, 202.298 54.779 C 201.667 51.475, 201.009 51.281, 193 52.033 M 169.421 106.419 C 166.116 107.858, 163 113.120, 163 117.262 C 163 118.614, 164.125 121.379, 165.500 123.405 C 166.875 125.431, 167.974 127.856, 167.943 128.794 C 167.911 129.732, 164.602 140.625, 160.588 153 L 153.291 175.500 140.559 176.169 C 133.557 176.537, 127.562 177.105, 127.236 177.430 C 126.373 178.293, 107.227 243.832, 105.570 251.595 L 104.909 254.691 129.204 267.975 C 162.550 286.207, 162.006 285.879, 162.910 288.323 C 163.353 289.520, 164.022 292.975, 164.395 296 C 164.769 299.025, 165.548 302.977, 166.126 304.781 C 167.096 307.813, 166.903 308.365, 163.588 312.034 C 159.599 316.450, 158.999 320.163, 161.494 324.989 C 163.607 329.074, 166.807 331.001, 171.473 330.996 C 179.531 330.989, 185.830 324.285, 184.505 317.129 C 184.029 314.559, 182.419 312.187, 178.990 309 L 174.147 304.500 171.938 291.840 C 170.724 284.878, 169.453 278.759, 169.115 278.244 C 168.417 277.181, 146.028 265.035, 129.379 256.688 C 123.262 253.621, 118.031 250.522, 117.754 249.802 C 117.477 249.081, 118.095 245.343, 119.127 241.495 C 120.159 237.648, 122.096 230, 123.431 224.500 C 126.433 212.135, 132.807 188.860, 133.335 188.332 C 133.549 188.117, 139.423 187.809, 146.387 187.646 C 153.351 187.484, 159.450 186.934, 159.941 186.425 C 160.893 185.437, 166.171 167.794, 167.996 159.500 C 168.601 156.750, 170.717 148.965, 172.699 142.200 C 176.124 130.509, 176.467 129.832, 179.629 128.510 C 183.550 126.872, 186.993 121.725, 186.993 117.500 C 186.993 111.434, 180.638 104.940, 174.800 105.039 C 173.535 105.061, 171.114 105.682, 169.421 106.419 M 169.343 111.566 C 167.275 113.634, 166.895 114.751, 167.387 117.316 C 168.087 120.963, 172.156 125, 175.133 125 C 178.264 125, 183 119.672, 183 116.150 C 183 109.702, 174.170 106.739, 169.343 111.566 M 127.384 133.746 L 115.268 134.059 110 145.688 C 107.103 152.084, 102.129 163.570, 98.946 171.212 C 92.208 187.393, 90.679 190, 87.927 190 C 84.606 190, 80.137 192.833, 78.517 195.967 C 76.300 200.255, 76.586 206.204, 79.168 209.486 C 84.058 215.703, 91.850 215.898, 97.551 209.947 C 100.561 206.805, 100.705 205.842, 99.932 194 C 99.748 191.185, 118.946 144.936, 120.500 144.449 C 121.050 144.276, 126.338 143.836, 132.250 143.471 L 143 142.808 143 137.904 C 143 133.818, 142.708 133.036, 141.250 133.216 C 140.287 133.335, 134.048 133.574, 127.384 133.746 M 84.635 196.073 C 79.079 200.443, 82.527 210, 89.659 210 C 93.839 210, 96.455 206.848, 96.455 201.813 C 96.455 194.854, 90.105 191.770, 84.635 196.073 M 164.508 209.681 C 159.263 211.497, 157.191 213.577, 155.917 218.308 C 153.615 226.856, 160.632 236.004, 169.482 235.996 C 174.245 235.992, 179.576 233.025, 181.192 229.478 C 182.593 226.403, 185.034 225.712, 192.926 226.158 C 199.360 226.521, 199.698 226.284, 199.576 221.500 L 199.500 218.500 191.500 218.208 C 183.527 217.917, 183.488 217.902, 180 213.867 C 175.783 208.990, 170.572 207.581, 164.508 209.681 M 165.315 215.007 C 162.472 216.153, 161 219.013, 161 223.395 C 161 230.501, 168.144 233.274, 173.923 228.411 C 176.375 226.348, 177 225.042, 177 221.984 C 177 215.830, 171.469 212.528, 165.315 215.007 M 228.114 215.750 C 223.024 219.976, 225.664 229, 231.991 229 C 236.199 229, 237.908 228.078, 239.537 224.928 C 241.491 221.149, 241.420 220.653, 238.411 217.077 C 235.424 213.526, 231.414 213.010, 228.114 215.750 M 104.263 282.934 L 102.025 286.852 105.263 288.787 C 107.043 289.851, 112.719 292.919, 117.875 295.604 C 123.031 298.289, 127.380 300.939, 127.540 301.493 C 127.699 302.047, 128.086 304.648, 128.399 307.273 C 128.878 311.289, 128.641 312.321, 126.905 313.773 C 121.422 318.363, 120.529 325.322, 124.809 330.113 C 127.063 332.635, 128.605 333.352, 132.605 333.736 C 136.933 334.152, 138.009 333.863, 140.761 331.547 C 146.590 326.643, 145.811 318.877, 138.983 313.830 C 136.122 311.714, 136 311.310, 136 303.927 L 136 296.231 121.664 287.615 C 113.779 282.877, 107.141 279.003, 106.914 279.008 C 106.686 279.012, 105.493 280.779, 104.263 282.934 M 166.073 315.635 C 164.933 317.084, 164 319.059, 164 320.024 C 164 323.006, 167.320 326.032, 171.289 326.668 C 174.382 327.163, 175.531 326.849, 177.539 324.963 C 182.592 320.217, 179.270 313, 172.034 313 C 169.024 313, 167.677 313.595, 166.073 315.635 M 128 319 C 125.297 321.703, 125.482 325.572, 128.455 328.545 C 133.091 333.182, 140.033 330.546, 140.217 324.078 C 140.394 317.863, 132.442 314.558, 128 319" stroke="none" fill="#ac4c1c" fill-rule="evenodd"/><path d="M 211.772 98.500 C 211.646 124.075, 211.534 149.613, 211.522 155.250 L 211.500 165.500 218.732 166.146 C 235.244 167.621, 247.463 172.772, 258.066 182.729 C 279.607 202.958, 279.403 235.775, 257.600 257.611 C 247.266 267.960, 233.918 273.928, 217.295 275.631 L 211 276.276 210.795 329.638 C 210.683 358.987, 210.570 384.913, 210.545 387.250 L 210.500 391.500 217 391.810 C 229.003 392.382, 252.176 385.277, 254.898 380.190 C 255.477 379.108, 257.410 370.805, 259.192 361.739 L 262.433 345.256 268.571 342.582 C 271.947 341.111, 278.189 337.925, 282.442 335.502 L 290.174 331.095 302.837 339.884 C 309.802 344.717, 317.123 349.643, 319.106 350.829 L 322.712 352.985 328.878 349.001 C 332.268 346.809, 337.920 342.096, 341.436 338.528 C 347.491 332.382, 358 317.986, 358 315.835 C 358 315.287, 352.375 308.108, 345.500 299.882 C 338.625 291.657, 333 284.678, 333 284.375 C 333 284.072, 334.335 280.938, 335.968 277.412 C 337.600 273.885, 340.099 267.269, 341.521 262.708 L 344.106 254.416 351.303 252.595 C 355.261 251.594, 364.196 248.952, 371.157 246.726 C 383.164 242.885, 383.845 242.525, 384.407 239.714 C 385.178 235.858, 385.155 209.571, 384.376 204.863 C 383.797 201.356, 383.573 201.186, 378.137 200.115 C 375.037 199.505, 365.559 197.650, 357.075 195.994 C 348.591 194.338, 341.580 192.875, 341.493 192.742 C 341.407 192.609, 340.286 189.800, 339.002 186.500 C 337.717 183.200, 335.366 177.874, 333.775 174.663 L 330.884 168.827 339.692 157.160 C 344.536 150.743, 350.703 142.252, 353.395 138.292 C 359.019 130.020, 359.242 131.201, 349.951 120.037 C 344.493 113.478, 329.531 101, 327.124 101 C 326.338 101, 319.351 105.002, 311.598 109.893 C 303.844 114.784, 295.660 119.706, 293.410 120.831 L 289.321 122.877 284.410 119.369 C 281.710 117.440, 275.183 113.432, 269.906 110.462 L 260.312 105.063 258.666 90.281 C 257.761 82.152, 256.729 72.658, 256.373 69.183 C 255.604 61.666, 255.253 61.362, 242.500 57.127 C 234.054 54.323, 221.562 52, 214.928 52 L 212 52 211.772 98.500" stroke="none" fill="#246c7c" fill-rule="evenodd"/></svg>